<svg id="Layer_1" data-name="Layer 1" xmlns="http://www.w3.org/2000/svg" viewBox="0 0 57.52 14.78"><defs><style>.cls-1{fill:#323641;}.cls-2{fill:#982e43;}</style></defs><path class="cls-1" d="M483.33,633.08v13.51c0,.35.44.63,1,.63h4.3c.55,0,1-.28,1-.63v-9.48c0-.35.44-.64,1-.64h1.57a1.15,1.15,0,0,1,.86.33l8.85,10.1a1.15,1.15,0,0,0,.86.32h4.94c.78,0,1.25-.55.84-1l-13.39-13.52a1.19,1.19,0,0,0-.83-.29h-10C483.77,632.44,483.33,632.72,483.33,633.08Z" transform="translate(-483.33 -632.44)"/><path class="cls-2" d="M497.31,633.42l13.39,13.51a1.31,1.31,0,0,0,1.68,0l12.43-13.51c.39-.42-.08-1-.85-1h-5.07a1.1,1.1,0,0,0-.9.37l-5.6,7.79a1.26,1.26,0,0,1-1.76,0L504,632.77a1.17,1.17,0,0,0-.87-.33h-5C497.37,632.44,496.9,633,497.31,633.42Z" transform="translate(-483.33 -632.44)"/><path class="cls-1" d="M531.77,640.06l8.53-2.74c.34-.11.55-.33.55-.57v-3.67c0-.35-.44-.64-1-.64h-12a1.17,1.17,0,0,0-.85.31l-12.43,13.51c-.39.43.08,1,.85,1h5a1.12,1.12,0,0,0,.88-.35l2.39-3.07a1.3,1.3,0,0,1,1.39-.26l9.31,3.59a1.4,1.4,0,0,0,.51.09h5c.55,0,1-.28,1-.63v-.41a.59.59,0,0,0-.37-.49l-8.88-4.57C531,640.83,531.13,640.27,531.77,640.06Zm-3.63-2.53c-.29.09-.59-.1-.45-.28l1.56-2a.39.39,0,0,1,.3-.11h4.67c.35,0,.46.3.15.4Z" transform="translate(-483.33 -632.44)"/></svg>